<?xml version="1.0" encoding="UTF-8" standalone="no"?>
<!-- Created with Inkscape (http://www.inkscape.org/) -->

<svg
   xmlns:dc="http://purl.org/dc/elements/1.1/"
   xmlns:cc="http://creativecommons.org/ns#"
   xmlns:rdf="http://www.w3.org/1999/02/22-rdf-syntax-ns#"
   xmlns:svg="http://www.w3.org/2000/svg"
   xmlns="http://www.w3.org/2000/svg"
   xmlns:sodipodi="http://sodipodi.sourceforge.net/DTD/sodipodi-0.dtd"
   xmlns:inkscape="http://www.inkscape.org/namespaces/inkscape"
   width="64px"
   height="64px"
   id="svg2985"
   version="1.1"
   inkscape:version="0.48.4 r9939"
   inkscape:export-filename="D:\All-SIL-Publishing\github\SimpleKeys\iconArt\notetab.png"
   inkscape:export-xdpi="90"
   inkscape:export-ydpi="90"
   sodipodi:docname="New document 2">
  <defs
     id="defs2987" />
  <sodipodi:namedview
     id="base"
     pagecolor="#ffffff"
     bordercolor="#666666"
     borderopacity="1.0"
     inkscape:pageopacity="0.0"
     inkscape:pageshadow="2"
     inkscape:zoom="5.5"
     inkscape:cx="6.3636364"
     inkscape:cy="32"
     inkscape:current-layer="layer1"
     showgrid="true"
     inkscape:document-units="px"
     inkscape:grid-bbox="true"
     inkscape:window-width="1194"
     inkscape:window-height="858"
     inkscape:window-x="26"
     inkscape:window-y="26"
     inkscape:window-maximized="0" />
  <metadata
     id="metadata2990">
    <rdf:RDF>
      <cc:Work
         rdf:about="">
        <dc:format>image/svg+xml</dc:format>
        <dc:type
           rdf:resource="http://purl.org/dc/dcmitype/StillImage" />
        <dc:title></dc:title>
      </cc:Work>
    </rdf:RDF>
  </metadata>
  <g
     id="layer1"
     inkscape:label="Layer 1"
     inkscape:groupmode="layer">
    <rect
       style="fill:#ffffff;fill-opacity:1;stroke:#ffffff;stroke-width:5;stroke-miterlimit:4;stroke-opacity:1;stroke-dasharray:none"
       id="rect3877"
       width="62.18182"
       height="62.363636"
       x="0.18181819"
       y="-0.18181819" />
    <rect
       style="fill:none;stroke:#000000;stroke-width:0.99398488;stroke-opacity:1"
       id="rect3770"
       width="58.915104"
       height="59.278744"
       x="3.2697196"
       y="2.5424469" />
    <rect
       style="fill:#ff0000;fill-opacity:1;stroke:none"
       id="rect2993"
       width="57.272713"
       height="59.090893"
       x="2.909091"
       y="2.3636363" />
    <path
       style="fill:none;stroke:#000000;stroke-width:1px;stroke-linecap:butt;stroke-linejoin:miter;stroke-opacity:1"
       d="m 4.5454545,5.0909091 c -0.4242424,0 -0.8484848,0 -1.2727272,0 -0.060606,0 -0.1389633,0.042855 -0.1818182,0 -0.042855,-0.042855 0.042855,-0.1389632 0,-0.1818182 -0.00585,-0.00585 -0.5013588,0 -0.5454546,0 -0.060606,0 -0.1212121,0 -0.1818181,0 -0.060606,0 -0.1818182,0.060606 -0.1818182,0 0,-0.060606 0.2424242,0 0.1818182,0 -0.1818182,0 -0.3636364,0 -0.5454546,0 -0.060606,0 -0.1389632,-0.042855 -0.1818182,0 -0.2424242,0.2424243 0.3030303,0.1818182 -0.1818181,0.1818182"
       id="path3772"
       inkscape:connector-curvature="0" />
    <path
       style="fill:none;stroke:#000000;stroke-width:1px;stroke-linecap:butt;stroke-linejoin:miter;stroke-opacity:1"
       d="m 4.6363636,17.731218 c -0.4242424,0 -0.8484846,0 -1.2727276,0 -0.06061,0 -0.138963,0.04285 -0.181818,0 -0.04285,-0.04286 0.04285,-0.138964 0,-0.181819 -0.0059,-0.0059 -0.501359,0 -0.545454,0 -0.06061,0 -0.121213,0 -0.181819,0 -0.06061,0 -0.181818,0.06061 -0.181818,0 0,-0.06061 0.242424,0 0.181818,0 -0.181818,0 -0.363636,0 -0.545454,0 -0.06061,0 -0.138963,-0.04285 -0.181818,0 -0.242425,0.242425 0.30303,0.181819 -0.181818,0.181819"
       id="path3772-1"
       inkscape:connector-curvature="0" />
    <path
       style="fill:none;stroke:#000000;stroke-width:1px;stroke-linecap:butt;stroke-linejoin:miter;stroke-opacity:1"
       d="m 4.4545454,11.549399 c -0.4242424,0 -0.8484848,0 -1.2727272,0 -0.060606,0 -0.1389633,0.04286 -0.1818182,0 -0.042855,-0.04285 0.042855,-0.138963 0,-0.181818 -0.00585,-0.0058 -0.5013588,0 -0.5454546,0 -0.060606,0 -0.1212121,0 -0.1818181,0 -0.060606,0 -0.1818182,0.06061 -0.1818182,0 0,-0.06061 0.2424242,0 0.1818182,0 -0.1818182,0 -0.3636364,0 -0.5454546,0 -0.060606,0 -0.1389632,-0.04285 -0.1818182,0 -0.2424242,0.242424 0.3030303,0.181818 -0.1818181,0.181818"
       id="path3772-7"
       inkscape:connector-curvature="0" />
    <path
       sodipodi:type="arc"
       id="path3799"
       style="fill:#000000;stroke:none"
       sodipodi:cx="2.7272727"
       sodipodi:cy="18"
       sodipodi:rx="1.5"
       sodipodi:ry="1.5"
       d="m 4.2272727,18 a 1.5,1.5 0 1 1 -3,0 1.5,1.5 0 1 1 3,0 z"
       transform="translate(-8.9090909,-2.9090909)" />
    <path
       style="fill:none;stroke:#000000;stroke-width:1px;stroke-linecap:butt;stroke-linejoin:miter;stroke-opacity:1"
       d="m 4.6363636,24.45849 c -0.4242424,0 -0.8484848,0 -1.2727272,0 -0.060606,0 -0.1389633,0.04285 -0.1818182,0 -0.042855,-0.04285 0.042855,-0.138963 0,-0.181818 -0.00585,-0.0059 -0.5013588,0 -0.5454546,0 -0.060606,0 -0.1212121,0 -0.1818181,0 -0.060606,0 -0.1818182,0.06061 -0.1818182,0 0,-0.06061 0.2424242,0 0.1818182,0 -0.1818182,0 -0.3636364,0 -0.5454546,0 -0.060606,0 -0.1389632,-0.04285 -0.1818182,0 -0.2424242,0.242424 0.3030303,0.181818 -0.1818181,0.181818"
       id="path3772-4"
       inkscape:connector-curvature="0" />
    <path
       style="fill:none;stroke:#000000;stroke-width:1px;stroke-linecap:butt;stroke-linejoin:miter;stroke-opacity:1"
       d="m 4.4545454,30.276672 c -0.4242424,0 -0.8484848,0 -1.2727272,0 -0.060606,0 -0.1389633,0.04285 -0.1818182,0 -0.042855,-0.04285 0.042855,-0.138963 0,-0.181818 -0.00585,-0.0059 -0.5013588,0 -0.5454546,0 -0.060606,0 -0.1212121,0 -0.1818181,0 -0.060606,0 -0.1818182,0.06061 -0.1818182,0 0,-0.06061 0.2424242,0 0.1818182,0 -0.1818182,0 -0.3636364,0 -0.5454546,0 -0.060606,0 -0.1389632,-0.04286 -0.1818182,0 -0.2424242,0.242424 0.3030303,0.181818 -0.1818181,0.181818"
       id="path3772-0"
       inkscape:connector-curvature="0" />
    <path
       style="fill:none;stroke:#000000;stroke-width:1px;stroke-linecap:butt;stroke-linejoin:miter;stroke-opacity:1"
       d="m 4.2727272,35.913035 c -0.4242424,0 -0.8484848,0 -1.2727272,0 -0.060606,0 -0.1389633,0.04286 -0.1818182,0 -0.042855,-0.04285 0.042855,-0.138963 0,-0.181818 -0.00585,-0.0058 -0.5013588,0 -0.5454546,0 -0.060606,0 -0.1212121,0 -0.1818181,0 -0.060606,0 -0.1818182,0.06061 -0.1818182,0 0,-0.06061 0.2424242,0 0.1818182,0 -0.1818182,0 -0.3636364,0 -0.5454546,0 -0.060606,0 -0.1389632,-0.04285 -0.1818182,0 -0.2424242,0.242425 0.3030303,0.181818 -0.1818181,0.181818"
       id="path3772-9"
       inkscape:connector-curvature="0" />
    <path
       style="fill:none;stroke:#000000;stroke-width:1px;stroke-linecap:butt;stroke-linejoin:miter;stroke-opacity:1"
       d="m 4.2727273,40.640308 c -0.4242424,0 -0.8484848,0 -1.2727272,0 -0.060606,0 -0.1389633,0.04286 -0.1818182,0 -0.042855,-0.04285 0.042855,-0.138963 0,-0.181818 -0.00585,-0.0058 -0.5013589,0 -0.5454547,0 -0.060606,0 -0.1212121,0 -0.1818181,0 -0.060606,0 -0.1818182,0.06061 -0.1818182,0 0,-0.06061 0.2424242,0 0.1818182,0 -0.1818182,0 -0.3636364,0 -0.5454546,0 -0.060606,0 -0.1389632,-0.04285 -0.1818182,0 -0.2424242,0.242424 0.3030303,0.181818 -0.1818181,0.181818"
       id="path3772-48"
       inkscape:connector-curvature="0" />
    <path
       style="fill:none;stroke:#000000;stroke-width:1px;stroke-linecap:butt;stroke-linejoin:miter;stroke-opacity:1"
       d="m 4.6363636,45.367581 c -0.4242424,0 -0.8484848,0 -1.2727272,0 -0.060606,0 -0.1389633,0.04285 -0.1818182,0 -0.042855,-0.04286 0.042855,-0.138963 0,-0.181818 -0.00585,-0.0059 -0.5013588,0 -0.5454546,0 -0.060606,0 -0.1212121,0 -0.1818181,0 -0.060606,0 -0.1818182,0.06061 -0.1818182,0 0,-0.06061 0.2424242,0 0.1818182,0 -0.1818182,0 -0.3636364,0 -0.5454546,0 -0.060606,0 -0.1389632,-0.04286 -0.1818182,0 -0.2424242,0.242424 0.3030303,0.181818 -0.1818181,0.181818"
       id="path3772-8"
       inkscape:connector-curvature="0" />
    <path
       style="fill:none;stroke:#000000;stroke-width:1px;stroke-linecap:butt;stroke-linejoin:miter;stroke-opacity:1"
       d="m 4.2727272,50.276672 c -0.4242424,0 -0.8484848,0 -1.2727272,0 -0.060606,0 -0.1389633,0.04286 -0.1818182,0 -0.042855,-0.04285 0.042855,-0.138963 0,-0.181818 -0.00585,-0.0058 -0.5013588,0 -0.5454546,0 -0.060606,0 -0.1212121,0 -0.1818181,0 -0.060606,0 -0.1818182,0.06061 -0.1818182,0 0,-0.06061 0.2424242,0 0.1818182,0 -0.1818182,0 -0.3636364,0 -0.5454546,0 -0.060606,0 -0.1389632,-0.04285 -0.1818182,0 -0.2424242,0.242424 0.3030303,0.181818 -0.1818181,0.181818"
       id="path3772-2"
       inkscape:connector-curvature="0" />
    <path
       style="fill:none;stroke:#000000;stroke-width:1px;stroke-linecap:butt;stroke-linejoin:miter;stroke-opacity:1"
       d="m 4.090909,54.822126 c -0.4242424,0 -0.8484848,0 -1.2727272,0 -0.060606,0 -0.1389633,0.04286 -0.1818182,0 -0.042855,-0.04285 0.042855,-0.138963 0,-0.181818 -0.00585,-0.0058 -0.5013588,0 -0.5454546,0 -0.060606,0 -0.1212121,0 -0.1818181,0 -0.060606,0 -0.1818182,0.06061 -0.1818182,0 0,-0.06061 0.2424242,0 0.1818182,0 -0.1818182,0 -0.3636364,0 -0.5454546,0 -0.060606,0 -0.1389632,-0.04285 -0.1818182,0 C 0.93939395,54.882733 1.4848484,54.822126 1,54.822126"
       id="path3772-45"
       inkscape:connector-curvature="0" />
    <path
       style="fill:none;stroke:#000000;stroke-width:1px;stroke-linecap:butt;stroke-linejoin:miter;stroke-opacity:1"
       d="m 4.0909092,60.094854 c -0.4242424,0 -0.8484848,0 -1.2727272,0 -0.060606,0 -0.1389633,0.04285 -0.1818182,0 -0.042855,-0.04286 0.042855,-0.138963 0,-0.181818 -0.00585,-0.0059 -0.5013588,0 -0.5454546,0 -0.060606,0 -0.1212121,0 -0.1818181,0 -0.060606,0 -0.1818182,0.06061 -0.1818182,0 0,-0.06061 0.2424242,0 0.1818182,0 -0.1818182,0 -0.3636364,0 -0.5454546,0 -0.060606,0 -0.1389632,-0.04286 -0.1818183,0 -0.24242417,0.242424 0.3030304,0.181818 -0.1818181,0.181818"
       id="path3772-5"
       inkscape:connector-curvature="0" />
    <rect
       style="fill:#ffffff;stroke:#ffffff;stroke-width:4.71241617;stroke-miterlimit:4;stroke-opacity:1;stroke-dasharray:none"
       id="rect3857"
       width="4.6512208"
       height="41.56031"
       x="29.674389"
       y="10.038026" />
    <rect
       style="fill:#ffffff;stroke:#ffffff;stroke-width:4.71423006;stroke-miterlimit:4;stroke-opacity:1;stroke-dasharray:none"
       id="rect3857-1"
       width="4.6535459"
       height="41.571533"
       x="26.811844"
       y="-54.471798"
       transform="matrix(-0.0328801,0.9994593,-0.99997986,0.00634602,0,0)" />
  </g>
</svg>
